HIERARCHY
ROOT mixamorig:Hips
{
	OFFSET -0.000008 104.274872 1.554316
	CHANNELS 6 Xposition Yposition Zposition Xrotation Yrotation Zrotation
	JOINT mixamorig:Spine
	{
		OFFSET -0.000005 10.181595 0.131519
		CHANNELS 6 Xposition Yposition Zposition Xrotation Yrotation Zrotation
		JOINT mixamorig:Spine1
		{
			OFFSET -0.000000 9.893959 -1.470707
			CHANNELS 6 Xposition Yposition Zposition Xrotation Yrotation Zrotation
			JOINT mixamorig:Spine2
			{
				OFFSET -0.000000 9.220757 -1.370641
				CHANNELS 6 Xposition Yposition Zposition Xrotation Yrotation Zrotation
				JOINT mixamorig:Neck
				{
					OFFSET 0.000001 16.740417 -2.049036
					CHANNELS 6 Xposition Yposition Zposition Xrotation Yrotation Zrotation
					JOINT mixamorig:Head
					{
						OFFSET 0.000000 9.617874 1.685006
						CHANNELS 6 Xposition Yposition Zposition Xrotation Yrotation Zrotation
						JOINT mixamorig:HeadTop_End
						{
							OFFSET 0.000002 22.037354 7.501101
							CHANNELS 6 Xposition Yposition Zposition Xrotation Yrotation Zrotation
							End Site
							{
								OFFSET 0.000168 2310.654297 -282.823242
							}
						}
					}
				}
				JOINT mixamorig:RightShoulder
				{
					OFFSET -4.569970 11.014908 -2.160885
					CHANNELS 6 Xposition Yposition Zposition Xrotation Yrotation Zrotation
					JOINT mixamorig:RightArm
					{
						OFFSET -10.592851 -0.524811 -2.232101
						CHANNELS 6 Xposition Yposition Zposition Xrotation Yrotation Zrotation
						JOINT mixamorig:RightForeArm
						{
							OFFSET -27.841511 0.000031 -0.000004
							CHANNELS 6 Xposition Yposition Zposition Xrotation Yrotation Zrotation
							JOINT mixamorig:RightHand
							{
								OFFSET -28.328831 -0.000015 0.000015
								CHANNELS 6 Xposition Yposition Zposition Xrotation Yrotation Zrotation
								JOINT mixamorig:RightHandThumb1
								{
									OFFSET -2.464806 -1.573990 2.681852
									CHANNELS 6 Xposition Yposition Zposition Xrotation Yrotation Zrotation
									JOINT mixamorig:RightHandThumb2
									{
										OFFSET -3.215179 -1.872803 1.924282
										CHANNELS 6 Xposition Yposition Zposition Xrotation Yrotation Zrotation
										JOINT mixamorig:RightHandThumb3
										{
											OFFSET -2.654831 -1.527969 1.512609
											CHANNELS 6 Xposition Yposition Zposition Xrotation Yrotation Zrotation
											JOINT mixamorig:RightHandThumb4
											{
												OFFSET -2.018814 -1.152008 1.108052
												CHANNELS 6 Xposition Yposition Zposition Xrotation Yrotation Zrotation
												End Site
												{
													OFFSET -188.809540 -114.533607 132.431396
												}
											}
										}
									}
								}
								JOINT mixamorig:RightHandIndex1
								{
									OFFSET -9.108284 -0.517868 2.259835
									CHANNELS 6 Xposition Yposition Zposition Xrotation Yrotation Zrotation
									JOINT mixamorig:RightHandIndex2
									{
										OFFSET -3.699989 0.000000 0.001215
										CHANNELS 6 Xposition Yposition Zposition Xrotation Yrotation Zrotation
										JOINT mixamorig:RightHandIndex3
										{
											OFFSET -2.850006 0.000031 -0.000522
											CHANNELS 6 Xposition Yposition Zposition Xrotation Yrotation Zrotation
											JOINT mixamorig:RightHandIndex4
											{
												OFFSET -2.772186 -0.000015 -0.000020
												CHANNELS 6 Xposition Yposition Zposition Xrotation Yrotation Zrotation
												End Site
												{
													OFFSET -277.218445 0.000000 -0.050231
												}
											}
										}
									}
								}
								JOINT mixamorig:RightHandMiddle1
								{
									OFFSET -9.532516 -0.000031 -0.000023
									CHANNELS 6 Xposition Yposition Zposition Xrotation Yrotation Zrotation
									JOINT mixamorig:RightHandMiddle2
									{
										OFFSET -3.700005 -0.000015 0.003713
										CHANNELS 6 Xposition Yposition Zposition Xrotation Yrotation Zrotation
										JOINT mixamorig:RightHandMiddle3
										{
											OFFSET -2.949974 0.000015 -0.002054
											CHANNELS 6 Xposition Yposition Zposition Xrotation Yrotation Zrotation
											JOINT mixamorig:RightHandMiddle4
											{
												OFFSET -2.946640 0.000000 -0.000156
												CHANNELS 6 Xposition Yposition Zposition Xrotation Yrotation Zrotation
												End Site
												{
													OFFSET -294.664337 0.000000 -0.113670
												}
											}
										}
									}
								}
								JOINT mixamorig:RightHandRing1
								{
									OFFSET -9.103600 -0.043076 -1.865134
									CHANNELS 6 Xposition Yposition Zposition Xrotation Yrotation Zrotation
									JOINT mixamorig:RightHandRing2
									{
										OFFSET -3.379288 0.000000 -0.001055
										CHANNELS 6 Xposition Yposition Zposition Xrotation Yrotation Zrotation
										JOINT mixamorig:RightHandRing3
										{
											OFFSET -2.889687 -0.000015 0.000379
											CHANNELS 6 Xposition Yposition Zposition Xrotation Yrotation Zrotation
											JOINT mixamorig:RightHandRing4
											{
												OFFSET -2.638809 -0.000015 0.000941
												CHANNELS 6 Xposition Yposition Zposition Xrotation Yrotation Zrotation
												End Site
												{
													OFFSET -263.880371 0.000000 0.516020
												}
											}
										}
									}
								}
								JOINT mixamorig:RightHandPinky1
								{
									OFFSET -8.076683 -0.486710 -3.806280
									CHANNELS 6 Xposition Yposition Zposition Xrotation Yrotation Zrotation
									JOINT mixamorig:RightHandPinky2
									{
										OFFSET -3.600014 -0.000015 -0.003747
										CHANNELS 6 Xposition Yposition Zposition Xrotation Yrotation Zrotation
										JOINT mixamorig:RightHandPinky3
										{
											OFFSET -2.099983 0.000000 -0.005739
											CHANNELS 6 Xposition Yposition Zposition Xrotation Yrotation Zrotation
											JOINT mixamorig:RightHandPinky4
											{
												OFFSET -2.115768 -0.000031 -0.003680
												CHANNELS 6 Xposition Yposition Zposition Xrotation Yrotation Zrotation
												End Site
												{
													OFFSET -211.577087 0.000000 -0.350686
												}
											}
										}
									}
								}
							}
						}
					}
				}
				JOINT mixamorig:LeftShoulder
				{
					OFFSET 4.570447 11.014725 -2.160855
					CHANNELS 6 Xposition Yposition Zposition Xrotation Yrotation Zrotation
					JOINT mixamorig:LeftArm
					{
						OFFSET 10.592371 -0.524597 -2.232119
						CHANNELS 6 Xposition Yposition Zposition Xrotation Yrotation Zrotation
						JOINT mixamorig:LeftForeArm
						{
							OFFSET 27.841532 -0.000031 0.000026
							CHANNELS 6 Xposition Yposition Zposition Xrotation Yrotation Zrotation
							JOINT mixamorig:LeftHand
							{
								OFFSET 28.328846 -0.000061 0.000022
								CHANNELS 6 Xposition Yposition Zposition Xrotation Yrotation Zrotation
								JOINT mixamorig:LeftHandThumb1
								{
									OFFSET 2.466141 -1.576172 2.681732
									CHANNELS 6 Xposition Yposition Zposition Xrotation Yrotation Zrotation
									JOINT mixamorig:LeftHandThumb2
									{
										OFFSET 3.217812 -1.872070 1.916482
										CHANNELS 6 Xposition Yposition Zposition Xrotation Yrotation Zrotation
										JOINT mixamorig:LeftHandThumb3
										{
											OFFSET 2.656029 -1.528778 1.514513
											CHANNELS 6 Xposition Yposition Zposition Xrotation Yrotation Zrotation
											JOINT mixamorig:LeftHandThumb4
											{
												OFFSET 2.020889 -1.154053 1.115139
												CHANNELS 6 Xposition Yposition Zposition Xrotation Yrotation Zrotation
												End Site
												{
													OFFSET 190.885437 -115.081749 130.048782
												}
											}
										}
									}
								}
								JOINT mixamorig:LeftHandIndex1
								{
									OFFSET 9.109314 -0.518021 2.259871
									CHANNELS 6 Xposition Yposition Zposition Xrotation Yrotation Zrotation
									JOINT mixamorig:LeftHandIndex2
									{
										OFFSET 3.699989 0.000000 -0.000322
										CHANNELS 6 Xposition Yposition Zposition Xrotation Yrotation Zrotation
										JOINT mixamorig:LeftHandIndex3
										{
											OFFSET 2.850006 0.000000 0.000352
											CHANNELS 6 Xposition Yposition Zposition Xrotation Yrotation Zrotation
											JOINT mixamorig:LeftHandIndex4
											{
												OFFSET 2.774864 -0.000031 -0.000027
												CHANNELS 6 Xposition Yposition Zposition Xrotation Yrotation Zrotation
												End Site
												{
													OFFSET 277.486267 0.000000 -0.009857
												}
											}
										}
									}
								}
								JOINT mixamorig:LeftHandMiddle1
								{
									OFFSET 9.533394 0.000061 0.000044
									CHANNELS 6 Xposition Yposition Zposition Xrotation Yrotation Zrotation
									JOINT mixamorig:LeftHandMiddle2
									{
										OFFSET 3.699989 -0.000015 -0.000231
										CHANNELS 6 Xposition Yposition Zposition Xrotation Yrotation Zrotation
										JOINT mixamorig:LeftHandMiddle3
										{
											OFFSET 2.949997 -0.000015 -0.000059
											CHANNELS 6 Xposition Yposition Zposition Xrotation Yrotation Zrotation
											JOINT mixamorig:LeftHandMiddle4
											{
												OFFSET 2.952896 0.000031 0.000063
												CHANNELS 6 Xposition Yposition Zposition Xrotation Yrotation Zrotation
												End Site
												{
													OFFSET 295.289337 0.000000 0.022810
												}
											}
										}
									}
								}
								JOINT mixamorig:LeftHandRing1
								{
									OFFSET 9.104523 -0.042999 -1.865074
									CHANNELS 6 Xposition Yposition Zposition Xrotation Yrotation Zrotation
									JOINT mixamorig:LeftHandRing2
									{
										OFFSET 3.150009 -0.000031 0.000043
										CHANNELS 6 Xposition Yposition Zposition Xrotation Yrotation Zrotation
										JOINT mixamorig:LeftHandRing3
										{
											OFFSET 2.949982 -0.000015 0.000040
											CHANNELS 6 Xposition Yposition Zposition Xrotation Yrotation Zrotation
											JOINT mixamorig:LeftHandRing4
											{
												OFFSET 2.644348 0.000000 0.000057
												CHANNELS 6 Xposition Yposition Zposition Xrotation Yrotation Zrotation
												End Site
												{
													OFFSET 264.434631 0.000000 0.012105
												}
											}
										}
									}
								}
								JOINT mixamorig:LeftHandPinky1
								{
									OFFSET 8.077789 -0.486847 -3.806259
									CHANNELS 6 Xposition Yposition Zposition Xrotation Yrotation Zrotation
									JOINT mixamorig:LeftHandPinky2
									{
										OFFSET 3.599953 0.000031 0.014727
										CHANNELS 6 Xposition Yposition Zposition Xrotation Yrotation Zrotation
										JOINT mixamorig:LeftHandPinky3
										{
											OFFSET 2.100021 0.000015 0.007705
											CHANNELS 6 Xposition Yposition Zposition Xrotation Yrotation Zrotation
											JOINT mixamorig:LeftHandPinky4
											{
												OFFSET 2.125504 0.000031 0.007517
												CHANNELS 6 Xposition Yposition Zposition Xrotation Yrotation Zrotation
												End Site
												{
													OFFSET 212.550781 0.000000 0.625752
												}
											}
										}
									}
								}
							}
						}
					}
				}
			}
		}
	}
	JOINT mixamorig:RightUpLeg
	{
		OFFSET -8.207787 -6.751648 -1.599560
		CHANNELS 6 Xposition Yposition Zposition Xrotation Yrotation Zrotation
		JOINT mixamorig:RightLeg
		{
			OFFSET -0.000002 -44.370117 0.345942
			CHANNELS 6 Xposition Yposition Zposition Xrotation Yrotation Zrotation
			JOINT mixamorig:RightFoot
			{
				OFFSET 0.000003 -44.423679 -3.043532
				CHANNELS 6 Xposition Yposition Zposition Xrotation Yrotation Zrotation
				JOINT mixamorig:RightToeBase
				{
					OFFSET -0.000002 -8.728671 10.710558
					CHANNELS 6 Xposition Yposition Zposition Xrotation Yrotation Zrotation
					JOINT mixamorig:RightToe_End
					{
						OFFSET -0.000001 -0.000679 9.278119
						CHANNELS 6 Xposition Yposition Zposition Xrotation Yrotation Zrotation
						End Site
						{
							OFFSET 0.000000 -0.067690 927.812134
						}
					}
				}
			}
		}
	}
	JOINT mixamorig:LeftUpLeg
	{
		OFFSET 8.207793 -6.751686 -1.599556
		CHANNELS 6 Xposition Yposition Zposition Xrotation Yrotation Zrotation
		JOINT mixamorig:LeftLeg
		{
			OFFSET -0.000004 -44.370014 0.346954
			CHANNELS 6 Xposition Yposition Zposition Xrotation Yrotation Zrotation
			JOINT mixamorig:LeftFoot
			{
				OFFSET -0.000001 -44.423672 -3.044401
				CHANNELS 6 Xposition Yposition Zposition Xrotation Yrotation Zrotation
				JOINT mixamorig:LeftToeBase
				{
					OFFSET -0.000002 -8.728669 10.710558
					CHANNELS 6 Xposition Yposition Zposition Xrotation Yrotation Zrotation
					JOINT mixamorig:LeftToe_End
					{
						OFFSET -0.000003 -0.000679 9.278133
						CHANNELS 6 Xposition Yposition Zposition Xrotation Yrotation Zrotation
						End Site
						{
							OFFSET 0.000000 -0.068021 927.813477
						}
					}
				}
			}
		}
	}
}
MOTION
Frames: 3
Frame Time: 0.033333
0.000006 104.270477 1.554256 0.000010 0.000003 -0.000113 -0.000005 10.181587 0.131522 0.000001 -0.000003 0.000084 -0.000000 9.893967 -1.470711 0.000001 0.000000 -0.000000 -0.000000 9.220802 -1.370642 0.000000 -0.000000 -0.000000 0.000001 16.740433 -2.049030 0.000000 -0.000000 -0.000000 0.000000 9.617859 1.685014 0.000000 0.000000 0.000000 0.000002 22.037384 7.501101 0.000000 -0.000000 0.000000 -4.569968 11.014880 -2.160881 0.000008 0.000001 -0.000038 -10.592874 -0.524757 -2.231905 74.691759 29.238387 -22.513611 -27.841526 0.000032 0.000538 -59.792528 107.377704 76.076703 -28.328850 0.000019 0.000023 -0.000324 -0.000046 0.000009 -2.464415 -1.573898 2.682373 -33.900053 -155.094950 19.878820 -3.215271 -1.872595 1.924637 156.206276 32.644657 8.565178 -2.654955 -1.527897 1.513092 147.851548 26.243634 -42.033141 -2.018826 -1.152009 1.108070 -0.000006 0.000002 0.000002 -9.108386 -0.517569 2.260165 107.414847 17.227737 -23.374133 -3.700073 0.000314 0.001549 102.158634 14.217862 -17.530201 -2.850081 0.000365 -0.000253 99.478953 10.756197 -12.685260 -2.772170 0.000000 -0.000021 0.000000 -0.000000 -0.000000 -9.532576 0.000262 0.000236 93.560450 15.810867 -16.962017 -3.700090 0.000322 0.003963 90.395826 12.286493 -12.275501 -2.950036 0.000344 -0.001825 89.427967 10.337765 -10.228687 -2.946626 -0.000000 -0.000154 -0.000003 -0.000001 0.000001 -9.103687 -0.042760 -1.864882 89.243566 17.821191 -17.546756 -3.379321 0.000303 -0.000845 90.164166 9.416909 -9.461147 -2.889740 0.000349 0.000606 92.955371 5.108416 -5.425279 -2.638805 -0.000014 0.000939 0.000004 -0.000000 0.000001 -8.076738 -0.486383 -3.806062 80.557853 16.495897 -13.878271 -3.600031 0.000282 -0.003567 82.537775 5.233101 -4.294614 -2.099988 0.000332 -0.005527 83.648972 1.341946 -1.017067 -2.115784 -0.000053 -0.003680 -0.000001 0.000000 -0.000003 4.570446 11.014691 -2.160851 -0.000018 0.000010 -0.000021 10.592401 -0.524483 -2.232354 72.663056 -13.392660 9.869947 27.841822 0.000068 -0.000208 97.588705 -70.725058 78.049596 28.328823 -0.000029 0.000024 0.000022 -0.000089 0.000000 2.465967 -1.576164 2.681909 -41.115458 160.486168 -5.700579 3.217762 -1.871701 1.916355 154.086445 -32.526741 -10.013062 2.656087 -1.528597 1.514432 144.985955 -27.380266 34.909343 2.020875 -1.154074 1.115160 0.000004 0.000002 0.000003 9.109368 -0.517840 2.259726 90.344066 -13.939832 14.010781 3.700042 0.000160 -0.000455 87.095950 -12.391626 11.799353 2.850041 0.000189 0.000218 85.792483 -11.413319 10.608111 2.774890 -0.000030 -0.000024 -0.000000 0.000001 -0.000001 9.533451 0.000226 -0.000094 89.584304 -13.670566 13.564083 3.700057 0.000191 -0.000385 91.152884 -13.908259 14.185338 2.950075 0.000172 -0.000195 89.476694 -17.836277 17.679752 2.952876 -0.000029 0.000065 0.000002 -0.000001 -0.000001 9.104584 -0.042848 -1.865229 86.945392 -14.433423 13.692872 3.150045 0.000210 -0.000092 94.963009 -15.768006 17.178223 2.950040 0.000174 -0.000050 97.582844 -17.395964 19.821387 2.644322 0.000029 0.000058 0.000001 -0.000002 -0.000002 8.077830 -0.486760 -3.806410 67.520402 -17.089811 11.876340 3.600003 0.000155 0.014575 69.486158 -13.906184 10.031628 2.100025 0.000158 0.007557 73.219607 -13.462381 10.391101 2.125507 -0.000032 0.007519 -0.000002 -0.000001 -0.000001 -8.207786 -6.751667 -1.599560 -0.077001 -0.000003 0.000080 -0.000002 -44.370110 0.345938 0.153719 -0.000000 -0.000000 0.000000 -44.423679 -3.043532 -0.076700 0.000000 -0.000002 -0.000006 -8.728667 10.710559 -0.000009 -0.000000 -0.000000 -0.000001 -0.000679 9.278123 0.000000 -0.000000 -0.000000 8.207792 -6.751710 -1.599556 -0.074518 -0.000003 0.000081 -0.000002 -44.370014 0.346960 0.148822 0.000002 0.000000 -0.000001 -44.423664 -3.044403 -0.074314 0.000000 -0.000002 -0.000004 -8.728671 10.710558 0.000007 -0.000000 -0.000000 0.000000 -0.000680 9.278137 -0.000000 0.000000 -0.000001 
0.000006 104.270477 1.554256 0.000010 0.000003 -0.000113 -0.000005 10.181587 0.131522 0.000001 -0.000003 0.000084 -0.000000 9.893967 -1.470711 0.000001 0.000000 -0.000000 -0.000000 9.220802 -1.370642 0.000000 -0.000000 -0.000000 0.000001 16.740433 -2.049030 0.000000 -0.000000 -0.000000 0.000000 9.617859 1.685014 0.000000 0.000000 0.000000 0.000002 22.037384 7.501101 0.000000 -0.000000 0.000000 -4.569968 11.014880 -2.160881 0.000008 0.000001 -0.000038 -10.592870 -0.524777 -2.231879 73.724584 35.640846 -27.102722 -27.841530 0.000019 0.000541 -54.544279 104.084194 66.916552 -28.328815 0.000020 0.000035 -0.000316 -0.000044 0.000008 -2.464433 -1.573798 2.682342 -44.779079 -161.667367 -2.317552 -3.215273 -1.872560 1.924633 152.021938 31.703723 6.794639 -2.654978 -1.527876 1.513061 145.741511 27.909654 -28.309647 -2.018833 -1.151997 1.108058 -0.000004 0.000001 -0.000002 -9.108369 -0.517540 2.260145 104.779111 14.764067 -19.151862 -3.700067 0.000319 0.001542 104.467900 11.763346 -15.118711 -2.850075 0.000368 -0.000234 103.112832 9.824366 -12.357039 -2.772156 -0.000000 -0.000015 -0.000000 0.000001 0.000000 -9.532603 0.000264 0.000228 91.205353 16.119316 -16.602783 -3.700063 0.000305 0.003949 91.598171 12.285703 -12.532997 -2.950073 0.000331 -0.001811 93.868144 11.591762 -12.388314 -2.946622 -0.000000 -0.000156 -0.000002 -0.000001 -0.000001 -9.103703 -0.042768 -1.864884 86.107341 19.198960 -17.915578 -3.379326 0.000314 -0.000824 88.609526 11.283689 -11.032081 -2.889748 0.000359 0.000654 96.357829 7.570622 -8.509261 -2.638807 -0.000024 0.000941 0.000000 0.000000 -0.000001 -8.076760 -0.486396 -3.806066 77.352200 19.271905 -15.353905 -3.600047 0.000263 -0.003548 81.499108 10.921554 -9.100975 -2.100032 0.000305 -0.005504 87.907984 6.642935 -6.190668 -2.115771 -0.000056 -0.003680 -0.000001 0.000000 -0.000002 4.570446 11.014691 -2.160851 -0.000018 0.000010 -0.000021 10.592400 -0.524484 -2.232365 71.388796 -13.263350 9.549429 27.841820 0.000053 -0.000186 102.146633 -74.294747 86.335586 28.328815 -0.000029 0.000026 0.000020 -0.000088 0.000000 2.466165 -1.576134 2.681883 -7.344501 158.205513 -70.090022 3.217794 -1.871718 1.916384 164.704616 -31.339541 2.699268 2.656101 -1.528636 1.514474 145.327615 -25.755535 52.836622 2.020887 -1.154051 1.115144 -0.000000 0.000000 0.000001 9.109371 -0.517822 2.259738 93.371124 -18.152420 19.219823 3.700028 0.000184 -0.000482 89.214797 -10.991786 10.859372 2.850045 0.000225 0.000203 88.324837 -8.724052 8.472362 2.774881 -0.000015 -0.000031 0.000002 0.000001 -0.000001 9.533476 0.000236 -0.000092 91.392398 -16.548456 16.940623 3.700020 0.000199 -0.000376 92.788284 -8.943474 9.385005 2.950057 0.000207 -0.000205 94.699241 -10.999238 11.937095 2.952879 -0.000031 0.000065 0.000001 0.000000 0.000001 9.104572 -0.042847 -1.865203 88.389820 -16.569141 16.117949 3.150049 0.000213 -0.000094 96.073967 -10.623454 11.807870 2.950030 0.000198 -0.000064 99.238414 -11.386139 13.373037 2.644332 0.000015 0.000060 0.000002 -0.000000 0.000001 8.077838 -0.486755 -3.806401 69.524598 -18.533980 13.348120 3.599989 0.000154 0.014586 73.384113 -15.971060 12.331857 2.100045 0.000143 0.007544 76.756491 -13.992891 11.496493 2.125505 -0.000030 0.007513 -0.000004 0.000000 -0.000001 -8.207786 -6.751667 -1.599560 -0.077001 -0.000003 0.000080 -0.000002 -44.370110 0.345938 0.153719 -0.000000 -0.000000 0.000000 -44.423679 -3.043532 -0.076700 0.000000 -0.000002 -0.000006 -8.728667 10.710559 -0.000009 -0.000000 -0.000000 -0.000001 -0.000679 9.278123 0.000000 -0.000000 -0.000000 8.207792 -6.751710 -1.599556 -0.074518 -0.000003 0.000081 -0.000002 -44.370014 0.346960 0.148822 0.000002 0.000000 -0.000001 -44.423664 -3.044403 -0.074314 0.000000 -0.000002 -0.000004 -8.728671 10.710558 0.000007 -0.000000 -0.000000 0.000000 -0.000680 9.278137 -0.000000 0.000000 -0.000001 
0.000006 104.270477 1.554256 0.000010 0.000003 -0.000113 -0.000005 10.181587 0.131522 0.000001 -0.000003 0.000084 -0.000000 9.893967 -1.470711 0.000001 0.000000 -0.000000 -0.000000 9.220802 -1.370642 0.000000 -0.000000 -0.000000 0.000001 16.740433 -2.049030 0.000000 -0.000000 -0.000000 0.000000 9.617859 1.685014 0.000000 0.000000 0.000000 0.000002 22.037384 7.501101 0.000000 -0.000000 0.000000 -4.569968 11.014880 -2.160881 0.000008 0.000001 -0.000038 -10.592862 -0.524793 -2.231851 73.174528 39.710286 -30.011783 -27.841534 0.000004 0.000573 -49.117577 103.093619 59.836419 -28.328819 -0.000007 0.000028 -0.000321 -0.000044 0.000006 -2.464482 -1.574037 2.682391 -11.466833 -146.644817 53.796988 -3.215174 -1.872450 1.924604 141.587827 33.550149 54.181377 -2.654970 -1.527842 1.513056 149.574791 28.212387 -21.261861 -2.018846 -1.152000 1.108065 -0.000001 -0.000003 0.000004 -9.108370 -0.517573 2.260182 112.369371 16.538028 -24.552708 -3.700075 0.000311 0.001565 109.827106 12.041596 -17.044870 -2.850069 0.000377 -0.000195 107.634103 8.972374 -12.243923 -2.772158 -0.000015 -0.000017 0.000001 0.000001 0.000001 -9.532570 0.000268 0.000253 97.797025 11.891066 -13.770952 -3.700048 0.000350 0.003980 98.339841 8.744164 -10.007662 -2.950056 0.000340 -0.001790 97.892744 9.671996 -11.089016 -2.946635 0.000000 -0.000152 -0.000000 0.000002 0.000001 -9.103672 -0.042739 -1.864863 95.096102 14.334868 -15.606878 -3.379315 0.000318 -0.000794 96.924694 9.282382 -10.491148 -2.889754 0.000344 0.000665 99.053808 7.516759 -8.858436 -2.638812 -0.000002 0.000935 0.000002 -0.000000 0.000001 -8.076727 -0.486380 -3.806023 86.955985 14.854763 -13.953708 -3.600029 0.000287 -0.003522 88.468046 7.846192 -7.296758 -2.100026 0.000322 -0.005492 91.408879 6.078239 -6.003102 -2.115782 -0.000042 -0.003678 0.000000 -0.000003 -0.000004 4.570446 11.014691 -2.160851 -0.000018 0.000010 -0.000021 10.592433 -0.524474 -2.232377 71.411083 -24.211236 17.526878 27.841820 0.000041 -0.000193 104.174455 -76.023632 90.204348 28.328833 -0.000029 0.000024 0.000026 -0.000088 -0.000001 2.466221 -1.575938 2.681831 34.285736 183.883528 -138.555647 3.217877 -1.871817 1.916433 181.833187 -18.114756 38.355983 2.656111 -1.528647 1.514508 158.482109 -20.070180 57.752951 2.020869 -1.154066 1.115151 0.000004 0.000001 -0.000001 9.109400 -0.517881 2.259774 94.671155 -30.856834 33.325849 3.700056 0.000165 -0.000442 96.117660 -19.418412 21.581943 2.850075 0.000231 0.000214 94.804385 -13.947138 15.153504 2.774876 -0.000043 -0.000023 0.000000 -0.000001 0.000001 9.533472 0.000193 -0.000064 95.686251 -23.767564 26.159674 3.700059 0.000226 -0.000374 100.678484 -11.601795 13.969066 2.950070 0.000220 -0.000188 100.845305 -10.777772 13.024304 2.952879 -0.000016 0.000062 -0.000000 0.000000 0.000001 9.104596 -0.042854 -1.865184 91.739720 -22.003712 22.666989 3.150048 0.000223 -0.000099 97.983981 -13.622315 15.644707 2.950034 0.000208 -0.000074 99.017819 -10.863645 12.711617 2.644325 0.000029 0.000058 -0.000002 -0.000001 0.000000 8.077843 -0.486726 -3.806404 81.287563 -22.208965 19.661541 3.600014 0.000173 0.014591 83.352726 -18.108971 16.626677 2.100060 0.000187 0.007556 87.216065 -14.751074 14.531745 2.125510 -0.000015 0.007519 0.000001 0.000001 0.000000 -8.207786 -6.751667 -1.599560 -0.077001 -0.000003 0.000080 -0.000002 -44.370110 0.345938 0.153719 -0.000000 -0.000000 0.000000 -44.423679 -3.043532 -0.076700 0.000000 -0.000002 -0.000006 -8.728667 10.710559 -0.000009 -0.000000 -0.000000 -0.000001 -0.000679 9.278123 0.000000 -0.000000 -0.000000 8.207792 -6.751710 -1.599556 -0.074518 -0.000003 0.000081 -0.000002 -44.370014 0.346960 0.148822 0.000002 0.000000 -0.000001 -44.423664 -3.044403 -0.074314 0.000000 -0.000002 -0.000004 -8.728671 10.710558 0.000007 -0.000000 -0.000000 0.000000 -0.000680 9.278137 -0.000000 0.000000 -0.000001 
